<?xml version="1.0" encoding="UTF-8"?> <!-- Creator: CorelDRAW 2019 (64-Bit) --> <svg xmlns="http://www.w3.org/2000/svg" xmlns:xlink="http://www.w3.org/1999/xlink" xmlns:xodm="http://www.corel.com/coreldraw/odm/2003" xml:space="preserve" width="49.568mm" height="17mm" style="shape-rendering:geometricPrecision; text-rendering:geometricPrecision; image-rendering:optimizeQuality; fill-rule:evenodd; clip-rule:evenodd" viewBox="0 0 4956.8 1700"> <defs> <style type="text/css"> <![CDATA[ .fil2 {fill:#BAE52A} .fil1 {fill:#D9DADA} .fil0 {fill:#FF2839} .fil3 {fill:#FFE000} .fil4 {fill:#3D3D3D;fill-rule:nonzero} ]]> </style> </defs> <g id="Слой_x0020_1"> <metadata id="CorelCorpID_0Corel-Layer"></metadata> <path class="fil0" d="M152.09 5.38l927.27 0c85,0 154.55,69.54 154.55,154.54l0 0c0,85 -69.55,154.55 -154.55,154.55l-927.27 0 -154.55 0 0 -154.55c0,-85 69.55,-154.54 154.55,-154.54z"></path> <path class="fil1" d="M1543 5.38l0 0c85,0 154.55,69.54 154.55,154.54l0 0 -0.01 0.25 0 154.3 -154.54 0 0 0c-85,0 -154.55,-69.55 -154.55,-154.55l0 0 0 0 0 -154.54 154.55 0z"></path> <path class="fil2" d="M1542.39 469.01l0 0c84.67,0 153.94,69.27 153.94,153.94l0 928.49c0,84.46 -68.94,153.6 -153.33,153.93l0 0.01 -0.61 0 0 0 -153.94 0 0 -153.94 0 -273.37 0 -655.12c0,-84.67 69.28,-153.94 153.94,-153.94z"></path> <path class="fil3" d="M153.44 469.01l141.31 0 165.08 0c85.75,0 155.89,70.16 155.89,155.9l0 306.39c0,85.75 -70.14,155.89 -155.89,155.89l-292.12 0 -14.27 0 -155.89 0 0 -155.89 0 -14.48 0 -153.19 0 -138.72 0 -155.9 155.89 0zm616.62 618.18l309.51 0c84.89,0 154.34,69.45 154.34,154.34l0 154.76 0 154.75 0 154.34 -154.34 0 -154.75 0 -137.15 0 -17.61 0 -152.56 0 0 -130.98c-1.17,-7.63 -1.78,-15.43 -1.78,-23.36l0 -309.51c0,-84.89 69.45,-154.34 154.34,-154.34z"></path> <path class="fil4" d="M360.81 1551.81l-59.6 -86.1 -3.54 0 -62.25 0 0 86.1 -71.53 0 0 -309.08 133.78 0c27.38,0 51.15,4.56 71.31,13.69 20.17,9.12 35.69,22.08 46.59,38.86 10.89,16.77 16.33,36.64 16.33,59.6 0,22.96 -5.52,42.76 -16.56,59.39 -11.03,16.63 -26.71,29.36 -47.02,38.19l69.32 99.35 -76.83 0zm-1.32 -196.93c0,-17.36 -5.59,-30.68 -16.78,-39.96 -11.18,-9.27 -27.52,-13.9 -49.01,-13.9l-58.28 0 0 107.73 58.28 0c21.49,0 37.83,-4.71 49.01,-14.13 11.19,-9.42 16.78,-22.66 16.78,-39.74z"></path> <path class="fil4" d="M934.85 937.18c-31.45,0 -59.88,-6.83 -85.3,-20.5 -25.43,-13.67 -45.41,-32.62 -59.96,-56.87 -14.55,-24.25 -21.83,-51.66 -21.83,-82.22 0,-30.57 7.28,-57.98 21.83,-82.23 14.55,-24.24 34.53,-43.2 59.96,-56.87 25.42,-13.67 54,-20.5 85.74,-20.5 26.75,0 50.93,4.7 72.53,14.11 21.6,9.4 39.75,22.92 54.45,40.56l-45.86 42.32c-20.86,-24.1 -46.73,-36.15 -77.59,-36.15 -19.1,0 -36.15,4.19 -51.14,12.57 -14.99,8.37 -26.67,20.06 -35.05,35.04 -8.38,14.99 -12.56,32.04 -12.56,51.15 0,19.1 4.18,36.15 12.56,51.14 8.38,14.99 20.06,26.67 35.05,35.05 14.99,8.37 32.04,12.56 51.14,12.56 30.86,0 56.73,-12.2 77.59,-36.59l45.86 42.32c-14.7,17.93 -32.92,31.6 -54.67,41 -21.75,9.41 -46,14.11 -72.75,14.11z"></path> <path class="fil4" d="M2423.61 746.35l-80.06 -115.65 -4.74 0 -83.63 0 0 115.65 -96.08 0 0 -415.15 179.71 0c36.77,0 68.69,6.13 95.78,18.39 27.08,12.25 47.94,29.65 62.56,52.19 14.63,22.53 21.95,49.22 21.95,80.06 0,30.84 -7.42,57.43 -22.24,79.77 -14.83,22.34 -35.88,39.44 -63.16,51.3l93.11 133.44 -103.2 0zm-1.78 -264.51c0,-23.33 -7.51,-41.22 -22.53,-53.67 -15.03,-12.46 -36.97,-18.68 -65.83,-18.68l-78.29 0 0 144.71 78.29 0c28.86,0 50.8,-6.33 65.83,-18.98 15.02,-12.66 22.53,-30.45 22.53,-53.38zm488.2 106.16c0,1.19 -0.59,9.49 -1.78,24.91l-241.38 0c4.35,19.77 14.63,35.39 30.84,46.85 16.21,11.47 36.37,17.2 60.49,17.2 16.61,0 31.34,-2.47 44.19,-7.41 12.85,-4.94 24.81,-12.75 35.88,-23.43l49.22 53.38c-30.05,34.4 -73.93,51.59 -131.66,51.59 -35.98,0 -67.81,-7.01 -95.48,-21.05 -27.68,-14.04 -49.03,-33.51 -64.06,-58.42 -15.02,-24.91 -22.53,-53.18 -22.53,-84.81 0,-31.23 7.41,-59.4 22.24,-84.51 14.83,-25.1 35.19,-44.68 61.08,-58.71 25.9,-14.04 54.86,-21.06 86.89,-21.06 31.23,0 59.5,6.73 84.81,20.17 25.3,13.44 45.17,32.72 59.6,57.82 14.43,25.11 21.65,54.27 21.65,87.48zm-165.47 -95.48c-20.95,0 -38.55,5.93 -52.78,17.79 -14.23,11.86 -22.93,28.07 -26.1,48.63l157.17 0c-3.17,-20.16 -11.86,-36.28 -26.1,-48.34 -14.23,-12.05 -31.63,-18.08 -52.19,-18.08zm355.94 -69.99c49.42,0 87.38,11.77 113.87,35.29 26.49,23.53 39.73,59.01 39.73,106.46l0 182.07 -86.59 0 0 -39.74c-17.39,29.66 -49.81,44.48 -97.26,44.48 -24.51,0 -45.76,-4.15 -63.75,-12.45 -17.99,-8.3 -31.73,-19.77 -41.22,-34.4 -9.49,-14.63 -14.24,-31.23 -14.24,-49.82 0,-29.65 11.17,-52.98 33.51,-69.98 22.34,-17 56.84,-25.5 103.49,-25.5l73.54 0c0,-20.16 -6.12,-35.68 -18.38,-46.56 -12.26,-10.87 -30.64,-16.31 -55.16,-16.31 -17,0 -33.7,2.67 -50.11,8.01 -16.41,5.34 -30.35,12.55 -41.81,21.65l-33.22 -64.65c17.4,-12.25 38.26,-21.74 62.57,-28.46 24.32,-6.73 49.33,-10.09 75.03,-10.09zm-7.12 266.29c15.82,0 29.85,-3.66 42.11,-10.97 12.26,-7.31 20.95,-18.09 26.09,-32.32l0 -32.62 -63.46 0c-37.95,0 -56.93,12.45 -56.93,37.36 0,11.86 4.65,21.25 13.94,28.17 9.29,6.92 22.04,10.38 38.25,10.38zm253.33 -382.53l92.52 0 0 440.06 -92.52 0 0 -440.06zm416.43 424.64c-9.1,6.72 -20.27,11.76 -33.51,15.12 -13.25,3.36 -27.18,5.04 -41.81,5.04 -37.96,0 -67.32,-9.68 -88.07,-29.06 -20.76,-19.37 -31.14,-47.84 -31.14,-85.4l0 -131.07 -49.23 0 0 -71.16 49.23 0 0 -77.7 92.52 0 0 77.7 79.47 0 0 71.16 -79.47 0 0 129.89c0,13.44 3.46,23.82 10.38,31.13 6.92,7.32 16.7,10.97 29.35,10.97 14.63,0 27.09,-3.95 37.37,-11.86l24.91 65.24zm371.94 -303.65l-144.12 338.64c-14.62,36.77 -32.71,62.67 -54.26,77.69 -21.55,15.03 -47.55,22.54 -77.99,22.54 -16.61,0 -33.01,-2.57 -49.23,-7.71 -16.21,-5.14 -29.45,-12.26 -39.73,-21.35l33.8 -65.83c7.12,6.33 15.33,11.27 24.62,14.83 9.29,3.55 18.48,5.33 27.57,5.33 12.66,0 22.94,-3.06 30.84,-9.19 7.91,-6.13 15.03,-16.31 21.35,-30.54l1.19 -2.97 -138.18 -321.44 95.48 0 89.55 216.47 90.15 -216.47 88.96 0zm-1777.3 977.18c-42.3,0 -80.56,-9.2 -114.76,-27.58 -34.2,-18.39 -61.08,-43.89 -80.65,-76.51 -19.57,-32.62 -29.36,-69.48 -29.36,-110.6 0,-41.12 9.79,-77.99 29.36,-110.61 19.57,-32.62 46.45,-58.12 80.65,-76.51 34.2,-18.38 72.66,-27.58 115.36,-27.58 35.98,0 68.5,6.33 97.56,18.98 29.06,12.65 53.47,30.84 73.24,54.56l-61.68 56.94c-28.07,-32.42 -62.86,-48.63 -104.38,-48.63 -25.7,0 -48.63,5.63 -68.8,16.9 -20.16,11.27 -35.88,26.99 -47.14,47.15 -11.27,20.16 -16.91,43.1 -16.91,68.8 0,25.7 5.64,48.63 16.91,68.79 11.26,20.17 26.98,35.88 47.14,47.15 20.17,11.27 43.1,16.9 68.8,16.9 41.52,0 76.31,-16.41 104.38,-49.22l61.68 56.93c-19.77,24.12 -44.28,42.51 -73.54,55.16 -29.26,12.65 -61.88,18.98 -97.86,18.98zm364.84 -330.94c49.42,0 87.38,11.77 113.87,35.29 26.49,23.53 39.73,59.01 39.73,106.46l0 182.07 -86.59 0 0 -39.74c-17.39,29.66 -49.81,44.48 -97.26,44.48 -24.51,0 -45.76,-4.15 -63.75,-12.45 -17.99,-8.3 -31.73,-19.77 -41.22,-34.4 -9.49,-14.63 -14.24,-31.23 -14.24,-49.82 0,-29.65 11.17,-52.98 33.51,-69.98 22.34,-17 56.84,-25.5 103.49,-25.5l73.54 0c0,-20.16 -6.12,-35.68 -18.38,-46.56 -12.26,-10.87 -30.64,-16.31 -55.16,-16.31 -17,0 -33.7,2.67 -50.11,8.01 -16.41,5.34 -30.35,12.55 -41.81,21.65l-33.22 -64.65c17.4,-12.25 38.26,-21.74 62.57,-28.46 24.32,-6.73 49.33,-10.09 75.03,-10.09zm-7.12 266.29c15.82,0 29.85,-3.66 42.11,-10.97 12.26,-7.31 20.95,-18.09 26.09,-32.32l0 -32.62 -63.46 0c-37.95,0 -56.93,12.45 -56.93,37.36 0,11.86 4.65,21.25 13.94,28.17 9.29,6.92 22.04,10.38 38.25,10.38zm253.33 -382.53l92.52 0 0 440.06 -92.52 0 0 -440.06zm500.05 281.71c0,1.19 -0.59,9.49 -1.78,24.91l-241.38 0c4.35,19.77 14.63,35.39 30.84,46.85 16.21,11.47 36.37,17.2 60.49,17.2 16.61,0 31.34,-2.47 44.19,-7.41 12.85,-4.94 24.81,-12.75 35.88,-23.43l49.22 53.38c-30.05,34.4 -73.93,51.59 -131.66,51.59 -35.98,0 -67.81,-7.01 -95.48,-21.05 -27.68,-14.04 -49.03,-33.51 -64.06,-58.42 -15.02,-24.91 -22.53,-53.18 -22.53,-84.81 0,-31.23 7.41,-59.4 22.24,-84.51 14.83,-25.1 35.19,-44.68 61.08,-58.71 25.9,-14.04 54.86,-21.06 86.89,-21.06 31.23,0 59.5,6.73 84.81,20.17 25.3,13.44 45.17,32.72 59.6,57.82 14.43,25.11 21.65,54.27 21.65,87.48zm-165.47 -95.48c-20.95,0 -38.55,5.93 -52.78,17.79 -14.23,11.86 -22.93,28.07 -26.1,48.63l157.17 0c-3.17,-20.16 -11.86,-36.28 -26.1,-48.34 -14.23,-12.05 -31.63,-18.08 -52.19,-18.08zm430.07 -69.99c39.54,0 71.47,11.87 95.79,35.59 24.31,23.72 36.47,58.91 36.47,105.56l0 182.67 -92.52 0 0 -168.43c0,-25.31 -5.53,-44.19 -16.61,-56.64 -11.07,-12.45 -27.08,-18.68 -48.03,-18.68 -23.33,0 -41.91,7.21 -55.75,21.65 -13.84,14.43 -20.76,35.88 -20.76,64.34l0 157.76 -92.52 0 0 -319.07 88.37 0 0 37.36c12.26,-13.44 27.48,-23.82 45.66,-31.13 18.19,-7.32 38.16,-10.98 59.9,-10.98zm553.43 -116.24l0 440.06 -88.36 0 0 -36.77c-22.94,27.68 -56.15,41.51 -99.64,41.51 -30.05,0 -57.23,-6.72 -81.55,-20.16 -24.31,-13.44 -43.39,-32.62 -57.23,-57.53 -13.84,-24.91 -20.76,-53.77 -20.76,-86.59 0,-32.81 6.92,-61.68 20.76,-86.58 13.84,-24.91 32.92,-44.09 57.23,-57.53 24.32,-13.44 51.5,-20.17 81.55,-20.17 40.72,0 72.55,12.85 95.48,38.55l0 -154.79 92.52 0zm-171.99 368.89c23.33,0 42.7,-8 58.12,-24.02 15.42,-16.01 23.13,-37.46 23.13,-64.35 0,-26.88 -7.71,-48.33 -23.13,-64.34 -15.42,-16.02 -34.79,-24.02 -58.12,-24.02 -23.72,0 -43.29,8 -58.71,24.02 -15.42,16.01 -23.13,37.46 -23.13,64.34 0,26.89 7.71,48.34 23.13,64.35 15.42,16.02 34.99,24.02 58.71,24.02zm395.08 -252.65c49.42,0 87.38,11.77 113.87,35.29 26.49,23.53 39.73,59.01 39.73,106.46l0 182.07 -86.59 0 0 -39.74c-17.39,29.66 -49.81,44.48 -97.26,44.48 -24.51,0 -45.76,-4.15 -63.75,-12.45 -17.99,-8.3 -31.73,-19.77 -41.22,-34.4 -9.49,-14.63 -14.24,-31.23 -14.24,-49.82 0,-29.65 11.17,-52.98 33.51,-69.98 22.34,-17 56.84,-25.5 103.49,-25.5l73.54 0c0,-20.16 -6.12,-35.68 -18.38,-46.56 -12.26,-10.87 -30.64,-16.31 -55.16,-16.31 -17,0 -33.7,2.67 -50.11,8.01 -16.41,5.34 -30.35,12.55 -41.81,21.65l-33.22 -64.65c17.4,-12.25 38.26,-21.74 62.57,-28.46 24.32,-6.73 49.33,-10.09 75.03,-10.09zm-7.12 266.29c15.82,0 29.85,-3.66 42.11,-10.97 12.26,-7.31 20.95,-18.09 26.09,-32.32l0 -32.62 -63.46 0c-37.95,0 -56.93,12.45 -56.93,37.36 0,11.86 4.65,21.25 13.94,28.17 9.29,6.92 22.04,10.38 38.25,10.38zm341.7 -219.43c11.07,-15.42 25.99,-27.09 44.78,-34.99 18.78,-7.91 40.42,-11.87 64.94,-11.87l0 85.41c-10.28,-0.79 -17.2,-1.19 -20.76,-1.19 -26.49,0 -47.25,7.41 -62.27,22.24 -15.03,14.83 -22.54,37.07 -22.54,66.72l0 150.64 -92.52 0 0 -319.07 88.37 0 0 42.11z"></path> </g> </svg> 