<?xml version="1.0" standalone="no"?>
<!DOCTYPE svg PUBLIC "-//W3C//DTD SVG 20010904//EN"
 "http://www.w3.org/TR/2001/REC-SVG-20010904/DTD/svg10.dtd">
<svg version="1.0" xmlns="http://www.w3.org/2000/svg"
 width="256.000000pt" height="256.000000pt" viewBox="0 0 256.000000 256.000000"
 preserveAspectRatio="xMidYMid meet">

<g transform="translate(0.000000,256.000000) scale(0.100000,-0.100000)"
fill="#000000" stroke="none">
<path d="M1075 1875 l-200 -174 -5 52 -5 52 -102 3 -103 3 -1 -128 c0 -70 -3
-135 -7 -144 -4 -9 -85 -83 -180 -165 l-172 -148 0 -88 c0 -48 2 -88 4 -88 3
0 65 46 138 103 394 303 830 632 838 632 5 0 221 -162 481 -360 259 -198 478
-364 485 -368 11 -7 14 8 14 76 l0 84 -486 417 c-267 229 -489 416 -493 416
-3 -1 -96 -79 -206 -175z"/>
<path d="M1266 1608 c-15 -8 -16 -12 -5 -19 10 -6 8 -8 -7 -7 -21 2 -274 -177
-274 -194 0 -5 -4 -7 -9 -4 -4 3 -17 -4 -27 -16 -17 -19 -17 -21 -2 -15 12 4
15 2 12 -8 -7 -17 29 -37 53 -29 13 4 14 3 5 -3 -10 -8 -4 -17 25 -38 21 -16
40 -33 41 -37 2 -4 46 -8 98 -8 l94 0 0 -68 c0 -67 10 -92 37 -92 10 0 13 21
13 80 l0 80 85 0 85 0 0 -90 0 -90 -82 0 c-74 0 -80 -1 -62 -15 12 -9 42 -14
82 -15 l62 0 0 -55 c0 -32 4 -55 11 -55 8 0 114 -76 184 -132 97 -79 138 -120
125 -128 -9 -6 -9 -9 1 -12 12 -4 12 -7 0 -21 -7 -10 -10 -17 -5 -17 4 0 3 -5
-3 -11 -6 -6 -33 -11 -62 -12 -28 0 -51 -4 -51 -9 0 -4 8 -8 18 -9 14 0 14 -2
-3 -9 -15 -7 -8 -9 30 -11 l50 -2 -55 -7 c-40 -5 -15 -7 90 -8 80 -1 162 -5
183 -8 l37 -7 0 267 0 266 -62 48 c-97 74 -222 171 -233 179 -5 5 -50 39 -100
78 -49 38 -137 105 -195 150 -161 123 -163 125 -184 113z"/>
</g>
</svg>
